<?xml version="1.0" standalone="no"?>
<!DOCTYPE svg PUBLIC "-//W3C//DTD SVG 20010904//EN"
 "http://www.w3.org/TR/2001/REC-SVG-20010904/DTD/svg10.dtd">
<svg version="1.0" xmlns="http://www.w3.org/2000/svg"
 width="885.000000pt" height="885.000000pt" viewBox="0 0 885.000000 885.000000"
 preserveAspectRatio="xMidYMid meet">
<metadata>
Created by potrace 1.14, written by Peter Selinger 2001-2017
</metadata>
<g transform="translate(0.000000,885.000000) scale(0.100000,-0.100000)"
fill="#000000" stroke="none">
<path d="M0 4425 l0 -4425 4425 0 4425 0 0 4425 0 4425 -4425 0 -4425 0 0
-4425z m3316 3571 c219 -108 333 -354 280 -602 -20 -94 -63 -172 -138 -250
l-69 -71 20 -49 c10 -27 36 -85 56 -129 20 -44 46 -100 57 -125 11 -25 26 -58
33 -75 8 -16 20 -46 28 -66 15 -35 16 -36 86 -43 86 -8 136 -31 203 -94 89
-83 127 -200 108 -330 -11 -82 -42 -143 -100 -201 -77 -77 -125 -96 -250 -96
-92 0 -111 3 -155 25 -68 33 -141 108 -172 178 -23 49 -27 71 -27 157 0 89 3
106 28 158 15 32 46 77 67 99 21 23 39 45 39 50 0 4 -13 37 -30 71 -16 35 -30
67 -30 71 0 4 -17 44 -39 89 -21 45 -49 107 -62 137 -41 98 -45 102 -101 95
-28 -4 -79 -2 -116 5 -311 56 -495 368 -406 688 40 144 151 264 304 329 49 21
68 23 181 20 123 -2 126 -3 205 -41z m2505 -2 c91 -27 166 -73 231 -142 96
-104 145 -236 135 -367 -15 -187 -109 -340 -270 -438 -82 -50 -142 -67 -260
-74 -116 -7 -98 14 -182 -213 -31 -85 -68 -181 -81 -212 -13 -32 -24 -59 -24
-62 0 -2 16 -21 35 -42 47 -52 61 -78 81 -158 14 -57 15 -75 4 -128 -16 -85
-53 -153 -115 -213 -74 -73 -131 -97 -235 -103 -74 -4 -93 -1 -148 21 -158 65
-249 223 -221 386 15 86 39 132 107 203 70 73 135 105 238 115 l78 8 19 50
c11 28 33 83 49 124 16 40 41 108 55 150 14 42 29 81 33 86 4 6 11 24 14 41 6
28 3 35 -34 64 -91 72 -159 210 -167 340 -11 174 54 328 186 445 131 116 320
164 472 119z m-1322 -759 c166 -40 283 -162 314 -330 39 -206 -71 -389 -285
-474 l-28 -11 0 -230 0 -230 40 -25 c22 -14 43 -25 47 -25 19 0 93 -85 119
-137 26 -50 29 -67 29 -147 -1 -79 -4 -98 -28 -147 -48 -93 -119 -155 -220
-190 -148 -52 -322 15 -391 149 -44 86 -57 171 -35 241 36 119 96 192 200 245
l64 33 -3 214 c-1 118 -4 224 -7 236 -3 12 -15 25 -28 28 -95 28 -206 122
-246 210 -45 100 -53 214 -23 307 43 129 133 223 257 266 103 36 132 38 224
17z m-1604 -741 c90 -43 166 -118 208 -204 28 -57 32 -77 35 -170 3 -81 0
-115 -12 -144 -28 -66 -24 -77 62 -171 20 -22 66 -74 101 -115 36 -41 73 -83
83 -92 19 -20 63 -24 73 -8 3 6 52 10 111 10 94 0 111 -3 167 -29 75 -34 138
-96 174 -171 23 -46 27 -68 27 -135 0 -67 -5 -89 -28 -135 -38 -77 -90 -128
-165 -162 -60 -28 -71 -30 -165 -26 -83 2 -110 7 -151 28 -157 78 -239 251
-190 401 10 30 21 58 26 64 17 18 8 41 -39 92 -26 28 -81 89 -122 136 -97 109
-103 113 -138 89 -61 -42 -113 -55 -229 -55 -108 -1 -113 0 -185 35 -196 98
-298 308 -242 499 36 121 116 218 222 267 113 52 264 51 377 -4z m3313 28 c9
-5 44 -22 77 -37 74 -35 145 -107 182 -182 37 -76 45 -228 17 -302 -39 -101
-101 -177 -185 -223 -134 -74 -284 -76 -416 -5 -18 9 -38 17 -46 17 -8 0 -38
-26 -68 -57 -29 -32 -97 -104 -151 -161 -96 -102 -107 -118 -89 -137 5 -6 16
-40 25 -76 15 -61 15 -72 1 -133 -30 -128 -98 -212 -212 -262 -43 -19 -71 -24
-143 -24 -80 0 -95 3 -142 29 -66 37 -118 89 -154 155 -26 47 -29 60 -29 156
0 98 2 109 30 160 36 67 95 127 155 159 63 34 206 41 280 15 l51 -18 60 64
c76 81 182 193 228 242 l34 37 -21 68 c-26 80 -28 141 -7 219 33 128 131 234
261 284 53 19 229 28 262 12z m-4776 -246 c134 -32 253 -112 329 -219 74 -106
91 -160 97 -304 2 -68 8 -123 13 -123 5 0 33 -11 63 -25 30 -14 121 -52 203
-85 81 -34 152 -65 157 -70 19 -19 59 -10 94 21 152 134 404 88 526 -96 100
-150 79 -333 -51 -456 -79 -75 -128 -94 -243 -94 -84 0 -102 3 -152 28 -126
62 -206 180 -217 319 -4 57 -11 83 -21 89 -8 5 -51 25 -95 44 -44 20 -89 40
-100 45 -65 29 -246 100 -258 100 -7 0 -31 -19 -52 -41 -226 -235 -612 -191
-804 91 -70 102 -91 172 -91 303 0 158 56 269 195 383 107 87 269 123 407 90z
m6219 -96 c84 -26 147 -64 210 -125 90 -87 137 -185 145 -305 12 -159 -34
-289 -140 -394 -104 -104 -231 -156 -378 -156 -164 1 -287 51 -389 157 -39 40
-71 65 -84 65 -11 0 -103 -35 -205 -77 -102 -42 -198 -82 -215 -87 -47 -17
-52 -25 -59 -86 -14 -119 -92 -226 -202 -278 -52 -24 -72 -28 -159 -28 -94 -1
-105 1 -167 32 -74 36 -133 96 -170 170 -27 56 -37 190 -18 255 17 64 80 147
142 189 147 101 346 82 479 -44 22 -21 44 -38 50 -38 6 0 34 11 62 24 29 13
63 27 77 31 59 18 316 129 322 139 4 6 8 36 8 67 0 222 121 394 339 481 88 35
254 39 352 8z m-3089 -1194 c101 -27 175 -70 248 -145 58 -59 100 -142 123
-237 19 -82 21 -132 6 -189 -6 -22 -13 -53 -16 -70 -3 -16 -21 -59 -40 -96
-38 -76 -152 -191 -219 -223 -21 -10 -46 -22 -55 -26 -44 -22 -176 -42 -243
-37 -73 5 -92 11 -186 56 -106 50 -250 224 -250 301 0 10 -4 22 -10 25 -14 9
-13 220 2 264 15 48 60 141 78 165 47 59 77 89 121 122 61 44 141 84 171 84
13 0 30 5 38 10 23 15 172 12 232 -4z m-2464 -106 c181 -30 306 -124 346 -261
l13 -44 59 -8 c65 -9 357 -3 373 8 6 3 11 13 11 21 0 40 68 129 126 165 73 45
215 64 295 38 69 -22 142 -65 181 -107 155 -169 100 -411 -118 -518 -54 -26
-68 -29 -164 -29 -85 1 -114 5 -152 22 -63 29 -131 93 -152 145 -10 24 -21 50
-26 58 -6 12 -41 15 -201 18 -212 3 -239 0 -239 -26 0 -9 -8 -39 -17 -66 -25
-69 -106 -149 -190 -188 -66 -31 -72 -32 -203 -32 -131 1 -137 2 -202 32 -111
53 -186 142 -205 242 -11 63 -10 206 2 265 27 130 161 234 341 264 27 5 51 9
54 10 3 0 33 -4 68 -9z m4807 -33 c106 -33 182 -96 223 -185 23 -49 27 -72 30
-172 4 -145 -15 -207 -91 -287 -55 -58 -108 -88 -195 -109 -79 -19 -120 -17
-209 7 -131 35 -236 114 -288 215 -39 78 -25 74 -256 74 l-207 0 -30 -53 c-82
-146 -234 -227 -369 -198 -104 23 -177 81 -224 176 -26 54 -29 69 -29 160 0
90 3 106 29 160 55 115 153 177 280 178 63 0 85 -4 132 -27 68 -34 128 -89
174 -160 l34 -54 123 -7 c68 -4 166 -3 218 2 l95 8 24 50 c46 93 152 179 276
222 43 15 213 15 260 0z m-598 -759 c42 -15 74 -38 122 -87 73 -73 100 -131
110 -235 7 -70 -2 -64 176 -127 66 -23 155 -55 197 -70 102 -38 121 -37 155 6
69 88 202 159 325 175 226 28 453 -100 556 -314 77 -160 61 -360 -40 -493
-107 -141 -212 -200 -373 -210 -109 -7 -175 6 -271 52 -87 42 -165 111 -222
196 -52 78 -73 141 -79 244 -6 123 -5 120 -75 145 -35 12 -72 26 -83 30 -11 5
-74 27 -140 49 -66 22 -137 47 -158 56 -43 18 -41 18 -107 -42 -45 -42 -137
-73 -214 -73 -93 0 -176 33 -250 101 -139 128 -166 302 -70 455 96 153 265
208 441 142z m-3498 -35 c70 -34 131 -96 165 -168 23 -48 26 -68 26 -154 0
-89 -3 -103 -31 -159 -33 -68 -91 -125 -165 -162 -42 -22 -60 -25 -163 -25
-131 0 -166 12 -254 84 l-47 39 -98 -45 c-53 -24 -156 -74 -228 -109 l-132
-64 -4 -118 c-4 -96 -9 -127 -30 -176 -54 -125 -159 -226 -289 -279 -97 -38
-249 -48 -349 -23 -141 36 -274 145 -331 271 -140 309 46 645 394 712 79 15
92 15 175 1 116 -21 206 -65 284 -140 34 -32 67 -58 75 -58 8 0 85 34 171 76
86 42 186 90 222 106 36 17 68 35 72 42 4 6 8 36 8 66 0 136 132 284 275 311
76 15 194 2 254 -28z m939 -78 c68 -36 113 -83 148 -154 54 -109 31 -266 -53
-357 -96 -105 -252 -148 -391 -108 l-55 16 -56 -58 c-31 -33 -85 -93 -121
-134 -36 -41 -75 -86 -87 -100 -27 -29 -29 -54 -8 -103 22 -53 20 -208 -3
-274 -61 -174 -230 -293 -415 -293 -114 0 -206 34 -286 106 -111 100 -166 266
-130 399 77 288 387 428 644 291 57 -30 63 -28 130 50 28 32 71 81 96 109 92
101 99 110 99 125 0 9 -4 20 -9 26 -5 5 -16 33 -26 63 -53 164 48 350 225 415
34 12 70 15 145 12 86 -3 107 -7 153 -31z m1621 0 c102 -56 159 -134 187 -255
14 -62 14 -73 -1 -131 -9 -35 -21 -72 -27 -82 -11 -22 18 -57 195 -239 l114
-118 59 33 c58 31 61 32 189 32 122 0 134 -2 188 -28 75 -36 157 -118 193
-193 27 -54 29 -68 29 -174 0 -106 -2 -120 -29 -175 -34 -70 -115 -153 -179
-183 -25 -12 -76 -29 -113 -38 -58 -15 -78 -16 -138 -6 -252 43 -415 276 -350
502 9 30 18 64 20 75 5 21 -14 43 -208 242 -108 111 -108 111 -141 100 -17 -6
-75 -12 -128 -14 -85 -4 -102 -1 -152 21 -67 29 -131 91 -172 166 -27 50 -30
63 -30 155 0 89 3 106 28 157 31 63 106 137 171 169 34 16 58 19 141 16 89 -2
106 -6 154 -32z m-836 -334 c73 -34 135 -94 174 -171 24 -48 28 -66 28 -145 0
-77 -4 -98 -26 -145 -30 -63 -94 -126 -162 -160 l-47 -24 0 -233 0 -234 38
-15 c79 -32 101 -45 149 -88 62 -56 108 -142 128 -238 14 -66 14 -81 0 -148
-37 -176 -159 -295 -339 -330 -142 -27 -301 38 -391 161 -113 154 -113 344 1
499 24 32 56 67 71 77 15 10 30 20 33 23 7 7 46 25 91 44 l37 14 7 164 c4 89
5 194 3 232 l-3 69 -64 33 c-79 40 -133 92 -165 158 -49 103 -57 164 -32 247
32 105 84 170 171 211 52 24 72 28 148 28 75 0 96 -4 150 -29z m744 -581 c70
-35 130 -96 170 -172 25 -48 27 -63 28 -158 0 -94 -3 -111 -27 -160 -15 -30
-43 -73 -62 -95 -20 -22 -36 -44 -36 -49 0 -23 206 -456 217 -456 235 -9 240
-10 353 -69 57 -30 148 -122 184 -186 54 -98 70 -160 69 -280 -1 -83 -6 -124
-22 -168 -49 -140 -141 -244 -271 -306 -74 -35 -77 -36 -200 -36 -111 0 -131
3 -180 24 -208 92 -329 273 -329 496 -1 145 47 267 148 379 34 37 60 70 57 74
-2 4 -24 50 -49 102 -24 52 -65 138 -90 190 -25 52 -52 111 -60 131 -15 36
-15 37 -83 41 -249 15 -404 297 -293 534 39 81 128 157 219 185 14 4 64 8 111
8 76 1 92 -2 146 -29z m-1462 -13 c60 -29 147 -119 170 -173 62 -147 31 -295
-85 -411 -69 -69 -136 -100 -236 -110 l-78 -8 -44 -105 c-24 -58 -50 -123 -57
-146 -7 -22 -27 -73 -44 -113 -17 -40 -31 -83 -31 -95 0 -13 24 -46 58 -81 97
-102 142 -213 142 -350 0 -171 -83 -328 -230 -439 -149 -111 -357 -131 -522
-48 -110 56 -207 163 -244 273 -62 183 -29 362 94 515 106 130 299 215 450
197 34 -4 51 -1 59 8 6 8 39 86 73 174 34 88 65 169 70 180 4 11 18 44 29 73
l22 53 -44 49 c-71 79 -96 211 -62 326 30 103 133 211 235 248 69 25 210 16
275 -17z"/>
<path d="M3012 7838 c-112 -38 -187 -127 -213 -255 -28 -136 48 -296 171 -358
117 -59 212 -54 308 17 122 91 171 249 120 385 -43 115 -127 194 -235 219 -74
17 -76 17 -151 -8z"/>
<path d="M3580 6384 c-57 -20 -78 -39 -101 -89 -23 -51 -23 -89 0 -140 28 -62
73 -96 134 -101 65 -7 110 16 151 74 69 98 10 247 -104 266 -21 3 -53 -1 -80
-10z"/>
<path d="M5614 7801 c-87 -25 -155 -71 -196 -134 -44 -67 -60 -124 -59 -207 1
-150 97 -266 236 -288 255 -40 459 203 378 451 -26 79 -101 149 -188 176 -80
25 -91 25 -171 2z"/>
<path d="M5050 6349 c-81 -47 -112 -157 -68 -234 32 -55 101 -90 162 -81 95
15 161 97 153 189 -5 60 -30 95 -88 124 -55 28 -113 29 -159 2z"/>
<path d="M4293 7025 c-74 -49 -107 -109 -107 -194 0 -47 6 -78 22 -107 68
-132 237 -166 349 -69 102 87 111 228 21 330 -46 54 -96 75 -170 74 -54 0 -70
-5 -115 -34z"/>
<path d="M4319 5747 c-54 -36 -79 -82 -79 -144 0 -93 53 -143 150 -143 93 0
164 73 164 168 0 90 -55 142 -148 142 -39 0 -62 -6 -87 -23z"/>
<path d="M2640 6351 c-114 -37 -170 -113 -170 -230 0 -62 4 -77 31 -121 86
-140 266 -172 384 -68 45 39 85 122 85 173 0 77 -79 193 -156 230 -42 20 -137
28 -174 16z"/>
<path d="M3515 5421 c-76 -19 -117 -70 -117 -142 0 -56 16 -86 68 -125 29 -22
50 -29 100 -32 57 -4 69 -1 104 22 53 35 72 66 72 121 0 42 -16 81 -47 111
-37 37 -125 59 -180 45z"/>
<path d="M5995 6331 c-49 -22 -85 -54 -114 -101 -16 -27 -21 -51 -21 -106 0
-69 1 -73 43 -124 57 -71 98 -90 189 -90 76 0 112 14 166 64 34 31 65 104 66
156 1 45 -27 113 -62 154 -53 59 -188 83 -267 47z"/>
<path d="M5151 5438 c-161 -78 -116 -318 60 -318 60 0 107 27 140 79 55 86 27
192 -64 240 -49 26 -80 26 -136 -1z"/>
<path d="M1235 6081 c-79 -20 -147 -78 -186 -157 -36 -74 -34 -187 5 -271 34
-75 95 -134 174 -171 47 -21 72 -26 137 -26 98 1 171 30 227 92 59 66 71 97
72 192 1 75 -3 92 -30 151 -58 123 -159 190 -294 195 -41 2 -88 0 -105 -5z"/>
<path d="M2523 5330 c-48 -29 -85 -108 -77 -162 11 -67 45 -111 104 -137 152
-66 289 88 207 234 -42 76 -162 109 -234 65z"/>
<path d="M7435 6011 c-108 -19 -209 -94 -254 -190 -33 -71 -36 -184 -7 -245
51 -102 187 -186 304 -186 160 0 310 117 337 263 38 199 -170 394 -380 358z"/>
<path d="M6110 5372 c-63 -25 -110 -88 -110 -150 0 -56 23 -98 76 -138 32 -25
47 -29 99 -29 52 0 67 4 99 29 21 16 47 48 58 72 16 38 17 50 7 86 -19 72 -36
95 -91 122 -60 30 -77 31 -138 8z"/>
<path d="M1911 4667 c-84 -42 -111 -88 -111 -188 0 -91 21 -142 74 -178 61
-42 109 -54 190 -49 151 10 218 81 217 230 0 92 -30 144 -106 185 -50 26 -71
32 -130 32 -60 1 -79 -4 -134 -32z"/>
<path d="M3135 4611 c-50 -30 -65 -62 -65 -139 0 -77 17 -110 70 -137 103 -53
270 33 270 140 0 110 -176 197 -275 136z"/>
<path d="M6677 4666 c-76 -28 -142 -96 -157 -162 -26 -112 106 -234 253 -234
75 0 121 17 158 57 42 44 49 67 49 148 0 90 -20 138 -75 174 -45 30 -168 40
-228 17z"/>
<path d="M5492 4604 c-111 -88 -60 -284 74 -284 56 0 93 19 127 64 54 70 55
107 3 179 -51 70 -143 88 -204 41z"/>
<path d="M6115 3913 c-62 -16 -110 -88 -107 -161 4 -96 80 -166 179 -166 67 0
99 22 136 95 25 49 27 60 18 99 -13 58 -38 90 -91 118 -42 21 -89 26 -135 15z"/>
<path d="M7375 3551 c-83 -22 -146 -71 -191 -147 -26 -44 -29 -58 -29 -134 0
-70 5 -95 27 -141 37 -81 92 -137 168 -172 55 -26 78 -31 145 -31 68 -1 89 3
135 26 69 34 108 72 140 134 21 41 25 63 25 134 0 72 -4 93 -27 141 -59 120
-160 187 -291 194 -40 3 -85 1 -102 -4z"/>
<path d="M2575 3886 c-95 -42 -128 -129 -86 -222 52 -115 187 -133 279 -38 40
42 42 48 42 103 0 73 -27 117 -90 149 -50 25 -100 28 -145 8z"/>
<path d="M1258 3477 c-143 -54 -231 -168 -232 -302 -1 -77 44 -176 101 -222
80 -63 119 -77 223 -78 84 0 102 3 152 28 116 57 179 149 186 273 5 86 -15
140 -78 208 -61 66 -136 99 -235 103 -51 2 -93 -2 -117 -10z"/>
<path d="M3520 3827 c-19 -6 -54 -30 -77 -54 -41 -40 -43 -45 -43 -101 0 -50
4 -63 28 -88 41 -44 77 -59 142 -57 118 2 197 96 169 198 -11 38 -54 78 -106
100 -41 17 -64 17 -113 2z"/>
<path d="M2625 3056 c-57 -26 -108 -75 -136 -128 -24 -48 -26 -155 -3 -201 23
-45 73 -95 114 -115 43 -21 173 -21 210 -1 83 46 130 104 150 185 46 183 -160
342 -335 260z"/>
<path d="M5165 3827 c-106 -42 -146 -148 -90 -243 34 -58 79 -84 145 -84 63 0
99 19 134 73 18 29 26 54 26 87 0 110 -120 204 -215 167z"/>
<path d="M6015 3037 c-55 -22 -71 -36 -114 -91 -40 -51 -42 -58 -42 -121 0
-53 5 -75 25 -109 45 -77 115 -116 207 -116 71 0 138 28 174 74 14 17 29 36
34 42 4 5 14 33 21 60 24 94 -29 195 -126 244 -55 27 -134 35 -179 17z"/>
<path d="M4310 3474 c-54 -38 -70 -66 -70 -122 0 -60 15 -94 58 -135 24 -23
42 -30 89 -34 81 -7 125 13 154 73 32 66 21 123 -36 182 -41 44 -46 46 -106
50 -49 3 -70 -1 -89 -14z"/>
<path d="M4287 2314 c-21 -14 -51 -46 -68 -71 -26 -41 -29 -56 -29 -123 0 -67
3 -82 29 -123 35 -54 88 -91 153 -107 128 -32 268 84 268 222 0 89 -37 157
-111 204 -33 21 -50 24 -121 23 -71 0 -89 -4 -121 -25z"/>
<path d="M5054 2886 c-67 -30 -113 -128 -93 -201 14 -49 84 -119 128 -128 41
-9 134 26 160 59 68 86 44 206 -53 265 -36 22 -97 24 -142 5z"/>
<path d="M5582 1767 c-125 -36 -230 -196 -220 -339 8 -121 82 -234 186 -285
74 -36 182 -39 252 -7 128 60 211 226 180 362 -16 74 -42 124 -92 178 -76 83
-203 120 -306 91z"/>
<path d="M3613 2881 c-97 -25 -154 -131 -120 -226 30 -87 159 -131 241 -83 73
43 108 156 71 228 -33 64 -117 100 -192 81z"/>
<path d="M3010 1739 c-116 -46 -161 -90 -205 -197 -63 -156 -6 -327 132 -397
50 -26 69 -30 138 -30 93 0 164 27 232 88 70 64 122 203 109 291 -9 57 -57
155 -92 187 -60 54 -101 71 -182 75 -62 3 -87 0 -132 -17z"/>
</g>
</svg>
